# xmcd
#
# Track frame offsets: 
#        150
#        15692
#        29461
#        42101
#        58193
#        88282
#        105831
#        130346
#        152064
#        170048
#        183176
#        196899
#
# Disc length: 2912 seconds
#
# Revision: 0
# Processed by: cddbd v1.5.2PL0 Copyright (c) Steve Scherf et al.
# Submitted via: ExactAudioCopy v0.99pb5
#
DISCID=9a0b5e0c
DTITLE=Eddie Shaw and The 757 Allstars - Still Riding High
DYEAR=2012
DGENRE=Blues
TTITLE0=Sack Full Of Blues
TTITLE1=Oh Baby
TTITLE2=What Comes First
TTITLE3=Paris In The Fall
TTITLE4=Black-Eyed Peas and Fatback
TTITLE5=Louisiana Blues
TTITLE6=Blues Dues
TTITLE7=Stloe My Daughter
TTITLE8=Lickskillet, Mississippi
TTITLE9=I Got To Go Now
TTITLE10=Rock This House
TTITLE11=I Want A Pretty Woman (Bonus Track)
EXTD=
EXTT0=
EXTT1=
EXTT2=
EXTT3=
EXTT4=
EXTT5=
EXTT6=
EXTT7=
EXTT8=
EXTT9=
EXTT10=
EXTT11=
PLAYORDER=
